<?xml version="1.0" encoding="UTF-8" standalone="no"?>
<!-- Created with Inkscape (http://www.inkscape.org/) -->

<svg
   version="1.1"
   id="svg824"
   width="682.66669"
   height="682.66669"
   viewBox="0 0 682.66669 682.66669"
   sodipodi:docname="logo_v2_clean.svg"
   inkscape:version="1.1 (c68e22c387, 2021-05-23)"
   xmlns:inkscape="http://www.inkscape.org/namespaces/inkscape"
   xmlns:sodipodi="http://sodipodi.sourceforge.net/DTD/sodipodi-0.dtd"
   xmlns="http://www.w3.org/2000/svg"
   xmlns:svg="http://www.w3.org/2000/svg">
  <defs
     id="defs828" />
  <sodipodi:namedview
     id="namedview826"
     pagecolor="#ffffff"
     bordercolor="#999999"
     borderopacity="1"
     inkscape:pageshadow="0"
     inkscape:pageopacity="0"
     inkscape:pagecheckerboard="0"
     showgrid="false"
     inkscape:zoom="0.32"
     inkscape:cx="-348.4375"
     inkscape:cy="567.1875"
     inkscape:window-width="2560"
     inkscape:window-height="1057"
     inkscape:window-x="-8"
     inkscape:window-y="794"
     inkscape:window-maximized="1"
     inkscape:current-layer="g830" />
  <g
     inkscape:groupmode="layer"
     inkscape:label="Image"
     id="g830">
    <path
       style="fill:#483a00;fill-opacity:1;stroke:none;stroke-width:1.22919;stroke-miterlimit:3.2"
       d="m 344.84174,612.6713 c 0,-0.7202 -1.3266,-0.85286 -8.5286,-0.85286 -5.3066,0 -8.5285,-0.2148 -8.5285,-0.56857 0,-0.33446 -1.9901,-0.56858 -4.8329,-0.56858 -3.9169,0 -4.8329,-0.16165 -4.8329,-0.85285 0,-0.67688 -0.8213,-0.85286 -3.98,-0.85286 -2.27429,0 -3.98001,-0.24368 -3.98001,-0.56858 0,-0.3249 -1.70572,-0.56857 -3.98001,-0.56857 -2.27429,0 -3.98001,-0.24367 -3.98001,-0.56857 0,-0.31588 -1.51619,-0.56857 -3.41143,-0.56857 -2.65334,0 -3.41144,-0.18953 -3.41144,-0.85286 0,-0.6536 -0.72278,-0.85286 -3.09359,-0.85286 -1.70148,0 -3.25173,-0.25586 -3.445,-0.56858 -0.19326,-0.31271 -1.48765,-0.56857 -2.87642,-0.56857 -1.38876,0 -2.52502,-0.25586 -2.52502,-0.56857 0,-0.31272 -1.15136,-0.56857 -2.55857,-0.56857 -1.89524,0 -2.55858,-0.22112 -2.55858,-0.85286 0,-0.59565 -0.60016,-0.85286 -1.99001,-0.85286 -1.0945,0 -1.99,-0.25586 -1.99,-0.56857 0,-0.31272 -1.25192,-0.56858 -2.78203,-0.56858 -1.94842,0 -2.8801,-0.25555 -3.10931,-0.85286 -0.19131,-0.49856 -1.04328,-0.85286 -2.05084,-0.85286 -0.94795,0 -1.72356,-0.25585 -1.72356,-0.56857 0,-0.31271 -0.8955,-0.56857 -1.99,-0.56857 -1.0945,0 -1.99001,-0.25586 -1.99001,-0.56857 0,-0.31272 -0.86813,-0.56858 -1.92917,-0.56858 -1.19032,0 -2.05451,-0.32664 -2.25645,-0.85286 -0.19131,-0.49855 -1.04328,-0.85285 -2.05083,-0.85285 -0.94796,0 -1.72356,-0.25586 -1.72356,-0.56858 0,-0.31271 -0.89551,-0.56857 -1.99001,-0.56857 -1.0945,0 -1.99,-0.25586 -1.99,-0.56857 0,-0.31272 -0.8955,-0.56858 -1.99001,-0.56858 -1.38984,0 -1.99,-0.25721 -1.99,-0.85285 0,-0.53067 -0.53698,-0.85286 -1.42143,-0.85286 -0.78179,0 -1.42144,-0.25586 -1.42144,-0.56858 0,-0.31271 -0.8955,-0.56857 -1.99,-0.56857 -1.0945,0 -1.99,-0.25586 -1.99,-0.56857 0,-0.31272 -0.48435,-0.56857 -1.07632,-0.56857 -0.59197,0 -1.22358,-0.38379 -1.40359,-0.85286 -0.19131,-0.49856 -1.04328,-0.85286 -2.05083,-0.85286 -0.94796,0 -1.72356,-0.25586 -1.72356,-0.56858 0,-0.31271 -0.63965,-0.56857 -1.42144,-0.56857 -0.78178,0 -1.42143,-0.25586 -1.42143,-0.56857 0,-0.31272 -0.63964,-0.56857 -1.42143,-0.56857 -0.88445,0 -1.42143,-0.3222 -1.42143,-0.85286 0,-0.47381 -0.5054,-0.85286 -1.13715,-0.85286 -0.62543,0 -1.13714,-0.25586 -1.13714,-0.56857 0,-0.31272 -0.63965,-0.56858 -1.42143,-0.56858 -0.78179,0 -1.42144,-0.25586 -1.42144,-0.56857 0,-0.31272 -0.8955,-0.56857 -1.99,-0.56857 -1.38984,0 -1.99001,-0.25721 -1.99001,-0.85286 0,-0.53067 -0.53698,-0.85286 -1.42143,-0.85286 -0.78178,0 -1.42143,-0.25586 -1.42143,-0.56857 0,-0.31272 -0.51171,-0.56858 -1.13714,-0.56858 -0.62543,0 -1.13715,-0.25585 -1.13715,-0.56857 0,-0.31271 -0.63964,-0.56857 -1.42143,-0.56857 -0.88445,0 -1.42143,-0.3222 -1.42143,-0.85286 0,-0.46907 -0.38379,-0.85286 -0.85286,-0.85286 -0.46908,0 -0.85286,-0.25586 -0.85286,-0.56857 0,-0.31272 -0.51172,-0.56858 -1.13715,-0.56858 -0.62543,0 -1.13714,-0.25585 -1.13714,-0.56857 0,-0.31271 -0.63965,-0.56857 -1.42143,-0.56857 -0.88445,0 -1.42144,-0.32219 -1.42144,-0.85286 0,-0.53067 -0.53698,-0.85286 -1.42143,-0.85286 -0.78179,0 -1.42143,-0.25586 -1.42143,-0.56857 0,-0.31272 -0.51172,-0.56857 -1.13715,-0.56857 -0.62543,0 -1.13714,-0.25586 -1.13714,-0.56858 0,-0.31271 -0.38379,-0.56857 -0.85286,-0.56857 -0.46907,0 -0.85286,-0.38379 -0.85286,-0.85286 0,-0.47381 -0.5054,-0.85286 -1.13714,-0.85286 -0.62543,0 -1.13715,-0.25586 -1.13715,-0.56857 0,-0.31272 -0.52999,-0.56857 -1.17776,-0.56857 -1.25878,0 -2.80225,-1.23031 -2.80225,-2.23368 0,-0.33506 -0.63964,-0.60919 -1.42143,-0.60919 -0.78179,0 -1.42143,-0.25586 -1.42143,-0.56857 0,-0.31272 -0.59641,-0.56857 -1.32536,-0.56857 -0.8318,0 -1.60864,-0.52933 -2.08608,-1.42143 -0.43957,-0.82135 -1.26328,-1.42144 -1.95113,-1.42144 -0.65472,0 -1.67076,-0.63964 -2.25785,-1.42143 -0.58711,-0.78179 -1.48685,-1.42143 -1.99944,-1.42143 -0.5126,0 -1.30081,-0.51172 -1.7516,-1.13715 -0.45078,-0.62543 -1.40277,-1.13714 -2.11552,-1.13714 -0.71275,0 -1.29591,-0.27413 -1.29591,-0.60919 0,-0.92004 -1.50328,-2.23367 -2.55615,-2.23367 -0.51241,0 -1.77622,-0.89551 -2.80847,-1.99001 -1.03225,-1.0945 -2.29435,-1.99 -2.80468,-1.99 -0.51032,0 -0.92787,-0.25586 -0.92787,-0.56858 0,-0.31271 -0.38378,-0.56857 -0.85286,-0.56857 -0.46907,0 -0.85286,-0.27413 -0.85286,-0.60919 0,-0.92095 -1.50368,-2.23368 -2.55857,-2.23368 -0.9192,0 -2.55858,-1.27507 -2.55858,-1.99001 0,-0.59035 -1.57104,-1.99 -2.23368,-1.99 -0.33505,0 -0.60918,-0.25586 -0.60918,-0.56857 0,-0.31272 -0.39167,-0.56858 -0.87037,-0.56858 -0.47871,0 -2.10992,-1.27929 -3.62491,-2.84286 -1.51499,-1.56358 -3.1137,-2.84286 -3.55269,-2.84286 -0.43899,0 -1.16698,-0.51172 -1.61777,-1.13715 -0.45079,-0.62543 -1.14691,-1.13715 -1.54695,-1.13715 -0.40004,0 -0.72734,-0.26748 -0.72734,-0.59441 0,-0.7718 -2.61379,-3.38559 -3.3856,-3.38559 -0.32692,0 -0.59441,-0.27414 -0.59441,-0.60919 0,-0.97242 -1.52806,-2.23368 -2.70617,-2.23368 -0.59493,0 -1.42401,-0.63964 -1.84241,-1.42143 -0.4184,-0.78179 -1.00755,-1.42143 -1.30921,-1.42143 -0.60983,0 -3.23759,-2.88326 -3.23868,-3.55358 -3.8e-4,-0.23454 -0.27482,-0.42643 -0.60988,-0.42643 -0.66264,0 -2.23367,-1.39966 -2.23367,-1.99001 0,-0.59034 -1.57104,-1.99 -2.23367,-1.99 -0.33506,0 -0.60919,-0.52334 -0.60919,-1.16299 0,-1.21007 -2.34951,-3.95416 -3.3856,-3.95416 -0.32692,0 -0.59441,-0.26749 -0.59441,-0.59442 0,-0.32693 -0.62802,-1.22243 -1.39559,-1.99 -0.76757,-0.76758 -1.66307,-1.39559 -1.99,-1.39559 -0.32693,0 -0.59442,-0.26749 -0.59442,-0.59442 0,-0.32693 -0.62802,-1.22243 -1.39559,-1.99 -0.76757,-0.76758 -1.66307,-1.39559 -1.99,-1.39559 -0.32693,0 -0.59442,-0.32731 -0.59442,-0.72734 0,-0.40004 -0.51171,-1.09617 -1.13714,-1.54695 -0.62543,-0.45079 -1.13715,-1.17816 -1.13715,-1.61639 0,-0.43822 -1.53514,-2.28961 -3.41143,-4.1142 -1.87629,-1.82459 -3.41144,-3.79697 -3.41144,-4.38307 0,-0.5861 -0.61148,-1.3929 -1.358854,-1.79288 -0.74737,-0.39998 -1.6861,-1.33871 -2.08608,-2.08608 -0.39998,-0.74736 -0.93986,-1.35885 -1.19973,-1.35885 -0.25987,0 -0.47249,-0.35673 -0.47249,-0.79272 0,-0.96218 -3.0508,-4.32443 -3.92384,-4.32443 -0.34361,0 -0.62474,-0.53305 -0.62474,-1.18455 0,-0.6515 -0.89551,-2.0542 -1.99001,-3.1171 -1.0945,-1.06291 -1.99,-2.32087 -1.99,-2.79546 0,-0.4746 -0.25586,-0.86291 -0.56857,-0.86291 -0.31272,0 -0.56858,-0.38379 -0.56858,-0.85286 0,-0.46907 -0.25586,-0.85286 -0.56857,-0.85286 -0.31272,0 -0.56857,-0.51171 -0.56857,-1.13714 0,-0.63175 -0.37905,-1.13715 -0.85286,-1.13715 -0.46907,0 -0.85286,-0.38379 -0.85286,-0.85286 0,-0.46907 -0.25586,-0.85286 -0.56857,-0.85286 -0.31272,0 -0.56858,-0.51171 -0.56858,-1.13714 0,-0.62543 -0.25585,-1.13715 -0.56857,-1.13715 -0.31271,0 -0.56857,-0.38378 -0.56857,-0.85286 0,-0.46907 -0.38379,-0.85286 -0.85286,-0.85286 -0.47381,0 -0.85286,-0.50539 -0.85286,-1.13714 0,-0.62543 -0.25586,-1.13715 -0.56857,-1.13715 -0.31272,0 -0.56858,-0.38378 -0.56858,-0.85286 0,-0.46907 -0.25585,-0.85286 -0.56857,-0.85286 -0.31271,0 -0.56857,-0.51171 -0.56857,-1.13714 0,-0.63175 -0.37905,-1.13715 -0.85286,-1.13715 -0.46907,0 -0.85286,-0.38378 -0.85286,-0.85286 0,-0.46907 -0.25586,-0.85285 -0.56857,-0.85285 -0.31272,0 -0.56857,-0.51172 -0.56857,-1.13715 0,-0.62543 -0.25586,-1.13715 -0.56858,-1.13715 -0.31271,0 -0.56857,-0.63964 -0.56857,-1.42143 0,-0.88445 -0.32219,-1.42143 -0.85286,-1.42143 -0.50864,0 -0.85286,-0.52304 -0.85286,-1.29591 0,-0.71275 -0.51171,-1.66474 -1.13714,-2.11553 -0.62543,-0.45078 -1.13715,-1.28287 -1.13715,-1.84907 0,-0.56622 -0.38379,-1.17675 -0.85286,-1.35675 -0.46907,-0.18 -0.85286,-0.93954 -0.85286,-1.68788 0,-0.74832 -0.25586,-1.3606 -0.56857,-1.3606 -0.31272,0 -0.56857,-0.41841 -0.56857,-0.9298 0,-0.51139 -0.63965,-1.5226 -1.42143,-2.24714 -0.78179,-0.72454 -1.42144,-1.71334 -1.42144,-2.19735 0,-0.484 -0.25585,-0.88001 -0.56857,-0.88001 -0.31271,0 -0.56857,-0.63964 -0.56857,-1.42143 0,-0.78178 -0.25586,-1.42143 -0.56857,-1.42143 -0.31272,0 -0.56858,-0.51974 -0.56858,-1.15499 0,-0.63525 -0.38378,-1.30226 -0.85286,-1.48226 -0.46907,-0.18 -0.85286,-0.81161 -0.85286,-1.40359 0,-0.59197 -0.25585,-1.07631 -0.56857,-1.07631 -0.31271,0 -0.56857,-0.63965 -0.56857,-1.42144 0,-0.78178 -0.25586,-1.42143 -0.56857,-1.42143 -0.31272,0 -0.56858,-0.62137 -0.56858,-1.38082 0,-0.75945 -0.38378,-1.7646 -0.85286,-2.23368 -0.46907,-0.46907 -0.85285,-1.38285 -0.85285,-2.03061 0,-0.64777 -0.25586,-1.17776 -0.56858,-1.17776 -0.31271,0 -0.56857,-0.48434 -0.56857,-1.07631 0,-0.59198 -0.38379,-1.22359 -0.85286,-1.40359 -0.46907,-0.18 -0.85286,-0.84702 -0.85286,-1.48226 0,-0.63525 -0.25586,-1.15499 -0.56857,-1.15499 -0.31272,0 -0.56857,-0.89551 -0.56857,-1.99001 0,-1.0945 -0.25586,-1.99 -0.56858,-1.99 -0.31271,0 -0.56857,-0.63965 -0.56857,-1.42144 0,-0.88444 -0.32219,-1.42143 -0.85286,-1.42143 -0.53067,0 -0.85286,-0.53698 -0.85286,-1.42143 0,-0.78179 -0.25586,-1.42143 -0.56857,-1.42143 -0.31272,0 -0.56857,-0.8955 -0.56857,-1.99001 0,-1.0945 -0.25586,-1.99 -0.56858,-1.99 -0.31271,0 -0.56857,-0.51172 -0.56857,-1.13715 0,-0.63174 -0.37905,-1.13714 -0.85286,-1.13714 -0.59565,0 -0.85286,-0.60016 -0.85286,-1.99001 0,-1.0945 -0.25585,-1.99 -0.56857,-1.99 -0.31271,0 -0.56857,-0.63964 -0.56857,-1.42143 0,-0.78179 -0.25586,-1.42143 -0.56857,-1.42143 -0.31272,0 -0.56858,-0.89551 -0.56858,-1.99001 0,-1.38984 -0.25721,-1.99 -0.85286,-1.99 -0.52282,0 -0.85286,-0.53172 -0.85286,-1.37405 0,-0.75573 -0.31982,-1.5233 -0.71071,-1.70572 -0.56857,-0.26534 -0.56857,-0.398 0,-0.66334 0.39089,-0.18241 0.71071,-1.20584 0.71071,-2.27429 0,-1.34773 0.26118,-1.94262 0.85286,-1.94262 0.46908,0 0.85286,-0.38379 0.85286,-0.85286 0,-0.63175 0.66334,-0.85286 2.55858,-0.85286 1.40722,0 2.55858,-0.25586 2.55858,-0.56857 0,-0.33915 2.17953,-0.56857 5.40144,-0.56857 3.22191,0 5.40144,-0.22943 5.40144,-0.56858 0,-0.31271 1.15136,-0.56857 2.55858,-0.56857 1.89524,0 2.55857,-0.22111 2.55857,-0.85286 0,-0.6912 0.91604,-0.85286 4.83287,-0.85286 2.84287,0 4.83287,-0.23412 4.83287,-0.56857 0,-0.33693 2.08477,-0.56857 5.11715,-0.56857 3.03239,0 5.11716,-0.23164 5.11716,-0.56858 0,-0.35459 3.31667,-0.56857 8.81287,-0.56857 7.45462,0 8.812884,-0.13144 8.812884,-0.85286 0,-0.74502 3.12715,-0.85286 24.73291,-0.85286 21.60576,0 24.73291,0.10784 24.73291,0.85286 0,0.70866 1.10555,0.85286 6.53858,0.85286 3.98001,0 6.53859,0.22249 6.53859,0.56857 0,0.33915 2.17953,0.56858 5.40144,0.56858 3.22191,0 5.40144,0.22942 5.40144,0.56857 0,0.33102 1.87497,0.56857 4.48775,0.56857 3.46461,0 4.56236,0.19444 4.81503,0.85286 0.24468,0.63764 1.26439,0.85286 4.04084,0.85286 2.09666,0 3.71356,0.24756 3.71356,0.56857 0,0.32444 1.69454,0.56858 3.94645,0.56858 2.17055,0 4.10459,0.25585 4.29786,0.56857 0.19327,0.31271 1.48766,0.56857 2.87642,0.56857 1.86541,0 2.52502,0.22279 2.52502,0.85286 0,0.66334 0.75809,0.85286 3.41143,0.85286 1.89524,0 3.41144,0.2527 3.41144,0.56857 0,0.31272 1.15136,0.56857 2.55858,0.56857 1.40721,0 2.55857,0.25586 2.55857,0.56858 0,0.31271 1.12399,0.56857 2.49775,0.56857 1.69572,0 2.60284,0.27385 2.82502,0.85286 0.22428,0.58447 1.13805,0.85286 2.9037,0.85286 1.41703,0 2.57642,0.25586 2.57642,0.56857 0,0.31272 0.8955,0.56857 1.99,0.56857 1.0945,0 1.99001,0.25586 1.99001,0.56858 0,0.31271 1.15136,0.56857 2.55857,0.56857 1.89524,0 2.55858,0.22111 2.55858,0.85286 0,0.59565 0.60016,0.85286 1.99,0.85286 1.09451,0 1.99001,0.25586 1.99001,0.56857 0,0.31272 0.86813,0.56857 1.92917,0.56857 1.19032,0 2.05452,0.32664 2.25645,0.85286 0.19131,0.49856 1.04328,0.85286 2.05084,0.85286 0.94796,0 1.72356,0.25586 1.72356,0.56857 0,0.31272 0.8955,0.56858 1.99,0.56858 1.0945,0 1.99001,0.25585 1.99001,0.56857 0,0.31271 0.86813,0.56857 1.92917,0.56857 1.19032,0 2.05451,0.32664 2.25645,0.85286 0.19131,0.49856 1.04328,0.85286 2.05083,0.85286 0.94796,0 1.72356,0.25586 1.72356,0.56857 0,0.31272 0.63965,0.56858 1.42144,0.56858 0.78178,0 1.42143,0.25585 1.42143,0.56857 0,0.31271 0.86813,0.56857 1.92917,0.56857 1.19032,0 2.05452,0.32664 2.25645,0.85286 0.18,0.46907 0.84701,0.85286 1.48226,0.85286 0.63525,0 1.15499,0.25586 1.15499,0.56857 0,0.31272 0.8955,0.56857 1.99001,0.56857 1.0945,0 1.99,0.25586 1.99,0.56858 0,0.31271 0.63964,0.56857 1.42143,0.56857 0.88445,0 1.42143,0.32219 1.42143,0.85286 0,0.47381 0.5054,0.85286 1.13715,0.85286 0.62543,0 1.13714,0.25586 1.13714,0.56857 0,0.31272 0.89551,0.56857 1.99001,0.56857 1.0945,0 1.99,0.25586 1.99,0.56858 0,0.31271 0.38379,0.56857 0.85286,0.56857 0.46908,0 0.85286,0.38379 0.85286,0.85286 0,0.59565 0.60016,0.85286 1.99001,0.85286 1.0945,0 1.99,0.25586 1.99,0.56857 0,0.31272 0.51172,0.56857 1.13715,0.56857 0.62543,0 1.13714,0.25586 1.13714,0.56858 0,0.31271 0.63965,0.56857 1.42143,0.56857 0.88445,0 1.42144,0.32219 1.42144,0.85286 0,0.53067 0.53698,0.85286 1.42143,0.85286 0.78178,0 1.42143,0.25585 1.42143,0.56857 0,0.31271 0.51171,0.56857 1.13714,0.56857 0.62543,0 1.13715,0.25586 1.13715,0.56857 0,0.31272 0.63964,0.56858 1.42143,0.56858 0.78179,0 1.42143,0.27413 1.42143,0.60918 0,1.00338 1.54347,2.23368 2.80225,2.23368 0.64777,0 1.17776,0.25586 1.17776,0.56857 0,0.31272 0.63965,0.56858 1.42143,0.56858 0.88445,0 1.42144,0.32219 1.42144,0.85286 0,0.46907 0.46347,0.85285 1.02993,0.85285 0.56646,0 1.5792,0.51172 2.25052,1.13715 0.67132,0.62543 1.74299,1.13715 2.3815,1.13715 0.65288,0 1.1609,0.37322 1.1609,0.85285 0,0.59565 0.6002,0.85286 1.99,0.85286 1.0945,0 1.99,0.25586 1.99,0.56858 0,0.31271 0.5117,0.56857 1.1372,0.56857 0.6254,0 1.1371,0.23862 1.1371,0.53026 0,0.29164 0.5757,0.71203 1.2793,0.93419 0.7036,0.22216 1.6931,0.87905 2.1989,1.45975 0.5057,0.58069 1.4219,1.05581 2.036,1.05581 0.6141,0 1.4589,0.63964 1.8773,1.42143 0.4774,0.8921 1.2542,1.42143 2.0861,1.42143 0.7289,0 1.3253,0.25586 1.3253,0.56857 0,0.31272 0.6396,0.56858 1.4214,0.56858 0.7818,0 1.4215,0.27413 1.4215,0.60918 0,0.95934 1.5217,2.23368 2.6673,2.23368 0.5735,0 1.5231,0.63965 2.1102,1.42143 0.5871,0.78179 1.4869,1.42143 1.9995,1.42143 0.5126,0 1.3008,0.51172 1.7516,1.13715 0.4507,0.62543 1.4027,1.13715 2.1155,1.13715 0.7127,0 1.2959,0.27413 1.2959,0.60918 0,0.92094 1.5037,2.23368 2.5586,2.23368 1.0549,0 2.5586,1.31274 2.5586,2.23368 0,0.33505 0.3837,0.60918 0.8528,0.60918 0.4691,0 0.8529,0.25586 0.8529,0.56858 0,0.31271 0.5117,0.56857 1.1371,0.56857 0.6254,0 1.1372,0.25586 1.1372,0.56857 0,0.31272 0.3837,0.56857 0.8528,0.56857 0.4691,0 0.8529,0.38379 0.8529,0.85286 0,0.47381 0.5054,0.85286 1.1371,0.85286 0.6255,0 1.1372,0.25586 1.1372,0.56857 0,0.31272 0.2741,0.56858 0.6092,0.56858 0.6626,0 2.2336,1.39965 2.2336,1.99 0,0.71494 1.6394,1.99001 2.5586,1.99001 1.0549,0 2.5586,1.31273 2.5586,2.23367 0,0.33506 0.3273,0.60919 0.7273,0.60919 0.4001,0 1.0962,0.51172 1.547,1.13715 0.4508,0.62543 1.4027,1.13714 2.1155,1.13714 0.7128,0 1.2959,0.28114 1.2959,0.62474 0,0.81099 3.3311,3.92384 4.1989,3.92384 0.367,0 1.0361,0.51172 1.4868,1.13715 0.4508,0.62543 1.1037,1.13714 1.4509,1.13714 0.3472,0 0.9585,0.61149 1.3585,1.35885 0.4,0.74737 1.3387,1.68611 2.0861,2.08608 0.7474,0.39998 1.3588,0.97406 1.3588,1.27572 0,0.60983 2.8833,3.23759 3.5536,3.23868 0.2346,3.8e-4 0.4265,0.27482 0.4265,0.60988 0,0.66264 1.3996,2.23368 1.99,2.23368 0.4744,0 1.99,1.51559 1.99,1.99 0,0.47441 1.5156,1.99 1.99,1.99 0.4744,0 1.99,1.5156 1.99,1.99001 0,0.47441 1.5156,1.99 1.99,1.99 0.4744,0 1.99,1.5156 1.99,1.99001 0,0.70038 1.6308,1.99 2.5165,1.99 1.1251,0 8.2864,7.14198 8.2864,8.26398 0,0.45825 0.2558,0.83319 0.5685,0.83319 0.3127,0 0.5686,0.63964 0.5686,1.42143 0,1.13714 0.2843,1.42143 1.4214,1.42143 0.7818,0 1.4218,0.19189 1.4222,0.42643 0,1.01098 2.7945,3.55358 3.9033,3.55358 0.9802,0 1.2131,0.34186 1.2131,1.78072 0,1.29858 0.5388,2.2889 1.99,3.65755 1.0945,1.03225 1.99,2.40571 1.99,3.05214 0,0.64643 0.2742,1.17533 0.6092,1.17533 0.921,0 2.2337,1.50368 2.2337,2.55857 0,0.9192 1.2751,2.55858 1.99,2.55858 0.4744,0 1.99,1.51559 1.99,1.99 0,0.59035 1.571,1.99001 2.2337,1.99001 0.335,0 0.6092,0.58316 0.6092,1.29591 0,0.71275 0.5117,1.66474 1.1371,2.11553 0.6254,0.45078 1.1372,1.40277 1.1372,2.11552 0,0.71275 0.2674,1.29591 0.5944,1.29591 0.7718,0 3.3856,2.61379 3.3856,3.3856 0,0.32693 0.2741,0.59441 0.6092,0.59441 0.9209,0 2.2336,1.50368 2.2336,2.55858 0,0.9427 1.2814,2.55858 2.0289,2.55858 0.6696,0 1.9137,1.92116 1.9331,2.985 0.01,0.54725 0.2739,0.995 0.5866,0.995 0.3127,0 0.5686,0.63965 0.5686,1.42144 0,0.78178 0.2741,1.42143 0.6092,1.42143 0.9209,0 2.2337,1.50368 2.2337,2.55858 0,1.05489 1.3127,2.55857 2.2336,2.55857 0.3351,0 0.6092,0.38379 0.6092,0.85286 0,0.46908 0.2559,0.85287 0.5686,0.85287 0.3127,0 0.5686,0.51172 0.5686,1.13715 0,0.62543 0.2558,1.13714 0.5685,1.13714 0.3127,0 0.5686,0.51975 0.5686,1.15499 0,0.63525 0.3838,1.30226 0.8529,1.48226 0.469,0.18001 0.8528,0.93955 0.8528,1.68788 0,0.74833 0.2559,1.3606 0.5686,1.3606 0.3127,0 0.5686,0.51171 0.5686,1.13714 0,0.62543 0.2558,1.13715 0.5685,1.13715 0.3128,0 0.5686,0.47588 0.5686,1.05751 0,0.58162 0.6397,1.53785 1.4214,2.12495 0.7829,0.58791 1.4215,1.64539 1.4215,2.35393 0,0.76449 0.346,1.28648 0.8528,1.28648 0.5307,0 0.8529,0.53699 0.8529,1.42143 0,0.78179 0.2559,1.42144 0.5686,1.42144 0.3127,0 0.5685,0.51171 0.5685,1.13714 0,0.62543 0.2559,1.13715 0.5686,1.13715 0.3127,0 0.5686,0.63964 0.5686,1.42143 0,0.88445 0.3222,1.42143 0.8528,1.42143 0.4691,0 0.8529,0.38379 0.8529,0.85286 0,0.46907 0.2559,0.85286 0.5686,0.85286 0.3127,0 0.5686,0.51171 0.5686,1.13714 0,0.62543 0.2558,1.13715 0.5685,1.13715 0.3127,0 0.5686,0.63964 0.5686,1.42143 0,0.88445 0.3222,1.42143 0.8529,1.42143 0.5306,0 0.8528,0.53699 0.8528,1.42144 0,0.78178 0.2559,1.42143 0.5686,1.42143 0.3127,0 0.5686,0.51171 0.5686,1.13714 0,0.62543 0.2558,1.13715 0.5685,1.13715 0.3127,0 0.5686,0.63964 0.5686,1.42143 0,0.78179 0.2741,1.42143 0.6092,1.42143 0.7872,0 2.2337,1.4465 2.2337,2.23368 0,0.33505 0.2558,0.60919 0.5685,0.60919 0.3128,0 0.5686,0.51171 0.5686,1.13714 0,0.63175 0.3791,1.13715 0.8529,1.13715 0.5306,0 0.8528,0.53698 0.8528,1.42143 0,1.24545 -0.2463,1.42143 -1.99,1.42143 -1.0945,0 -1.99,0.25586 -1.99,0.56857 0,0.31272 -0.8955,0.56858 -1.99,0.56858 -1.3898,0 -1.99,0.25721 -1.99,0.85285 0,0.59565 -0.6001,0.85286 -1.99,0.85286 -1.0945,0 -1.99,0.25586 -1.99,0.56858 0,0.31271 -0.8955,0.56857 -1.99,0.56857 -1.0945,0 -1.99,0.25586 -1.99,0.56857 0,0.31272 -0.7362,0.56857 -1.6361,0.56857 -0.8999,0 -1.9546,0.38379 -2.3439,0.85286 -0.3893,0.46908 -1.429,0.85286 -2.3104,0.85286 -0.8814,0 -1.7606,0.25586 -1.9539,0.56858 -0.1933,0.31271 -1.1119,0.56857 -2.0414,0.56857 -0.9777,0 -1.828,0.35945 -2.0173,0.85286 -0.2349,0.61221 -1.1925,0.85286 -3.3936,0.85286 -1.6865,0 -3.0663,0.25585 -3.0663,0.56857 0,0.31271 -1.2793,0.56857 -2.8429,0.56857 -1.5635,0 -2.8428,0.25586 -2.8428,0.56857 0,0.31272 -1.4072,0.56858 -3.1272,0.56858 -2.4006,0 -3.1271,0.19813 -3.1271,0.85286 0,0.66333 -0.7581,0.85286 -3.4115,0.85286 -1.8952,0 -3.4114,0.25269 -3.4114,0.56857 0,0.3249 -1.7057,0.56857 -3.98,0.56857 -2.2743,0 -3.98,0.24367 -3.98,0.56857 0,0.3249 -1.7057,0.56858 -3.98,0.56858 -3.1588,0 -3.98,0.17598 -3.98,0.85286 0,0.69824 -0.9792,0.85285 -5.4015,0.85285 -3.2219,0 -5.4014,0.22943 -5.4014,0.56858 0,0.35197 -3.0324,0.56857 -7.96,0.56857 -6.6966,0 -7.9601,0.13538 -7.9601,0.85286 0,0.74252 -2.6849,0.85286 -20.7529,0.85286 -18.0679,0 -20.7529,-0.11034 -20.7529,-0.85286 z"
       id="path2262" />
    <path
       style="fill:#312700;fill-opacity:1;stroke:none;stroke-width:1.22919;stroke-miterlimit:3.2"
       d="m 483.57354,590.49696 c 0,-0.78179 -0.2559,-1.42143 -0.5686,-1.42143 -0.3127,0 -0.5686,-0.45019 -0.5686,-1.00042 0,-0.55024 -0.8899,-1.76556 -1.9777,-2.70072 -1.0877,-0.93517 -1.9832,-2.15608 -1.99,-2.71314 -0.01,-0.55707 -0.3961,-1.16013 -0.8651,-1.34012 -0.4691,-0.18001 -0.8529,-0.93955 -0.8529,-1.68788 0,-0.74833 -0.2559,-1.3606 -0.5686,-1.3606 -0.3127,0 -0.5685,-0.51172 -0.5685,-1.13715 0,-0.62543 -0.2559,-1.13714 -0.5686,-1.13714 -0.3127,0 -0.5686,-0.51975 -0.5686,-1.15499 0,-0.63525 -0.3838,-1.30226 -0.8528,-1.48226 -0.4691,-0.18001 -0.8529,-0.8299 -0.8529,-1.44421 0,-1.20766 -1.2497,-2.74141 -2.2337,-2.74141 -0.335,0 -0.6092,-0.63965 -0.6092,-1.42144 0,-0.78178 -0.2558,-1.42143 -0.5685,-1.42143 -0.3128,0 -0.5686,-0.51171 -0.5686,-1.13714 0,-0.62543 -0.2559,-1.13715 -0.5686,-1.13715 -0.3127,0 -0.5686,-0.63964 -0.5686,-1.42143 0,-0.88445 -0.3221,-1.42143 -0.8528,-1.42143 -0.5087,0 -0.8529,-0.52304 -0.8529,-1.29592 0,-0.71275 -0.5117,-1.66473 -1.1371,-2.11552 -0.6255,-0.45079 -1.1372,-1.40277 -1.1372,-2.11552 0,-0.77287 -0.3442,-1.29592 -0.8528,-1.29592 -0.5307,0 -0.8529,-0.53698 -0.8529,-1.42143 0,-0.78178 -0.2558,-1.42143 -0.5686,-1.42143 -0.3127,0 -0.5685,-0.51171 -0.5685,-1.13714 0,-0.62543 -0.2559,-1.13715 -0.5686,-1.13715 -0.3127,0 -0.5686,-0.63964 -0.5686,-1.42143 0,-0.88445 -0.3222,-1.42143 -0.8528,-1.42143 -0.4802,0 -0.8529,-0.50827 -0.8529,-1.16299 0,-1.21009 -2.3495,-3.95418 -3.3856,-3.95418 -0.3269,0 -0.5944,-0.58316 -0.5944,-1.29591 0,-0.71276 -0.5117,-1.66474 -1.1371,-2.11552 -0.6255,-0.45079 -1.1372,-1.40277 -1.1372,-2.11553 0,-0.77287 -0.3442,-1.29591 -0.8529,-1.29591 -0.4801,0 -0.8528,-0.50827 -0.8528,-1.16299 0,-1.21008 -2.3495,-3.95417 -3.3856,-3.95417 -0.3269,0 -0.5944,-0.5172 -0.5944,-1.14934 0,-0.63214 -1.4072,-2.57922 -3.1272,-4.32686 -1.7199,-1.74763 -3.1271,-3.54117 -3.1271,-3.98565 0,-0.44448 -0.3838,-0.95542 -0.8529,-1.13542 -0.4691,-0.18 -0.8528,-0.68368 -0.8528,-1.1193 0,-0.43561 -0.2559,-0.79203 -0.5686,-0.79203 -0.3127,0 -0.5686,-0.37345 -0.5686,-0.82988 0,-0.95006 -4.2023,-5.42442 -5.0946,-5.42442 -0.3251,0 -0.5911,-0.38378 -0.5911,-0.85285 0,-0.46908 -0.2559,-0.85286 -0.5686,-0.85286 -0.3127,0 -0.5686,-0.41842 -0.5686,-0.92981 0,-0.51139 -0.6396,-1.5226 -1.4214,-2.24714 -0.7818,-0.72454 -1.4214,-1.71334 -1.4214,-2.19735 0,-0.484 -0.2559,-0.88 -0.5686,-0.88 -0.3127,0 -0.5686,-0.27414 -0.5686,-0.60919 0,-0.78717 -1.4465,-2.23368 -2.2336,-2.23368 -0.3351,0 -0.6092,-0.63964 -0.6092,-1.42143 0,-1.40471 0.057,-1.42143 4.8328,-1.42143 2.8429,0 4.8329,-0.23412 4.8329,-0.56857 0,-0.36867 7.2967,-0.56858 20.7529,-0.56858 13.4562,0 20.7529,0.19991 20.7529,0.56858 0,0.35176 3.0121,0.56857 7.8992,0.56857 6.497,0 7.9573,0.15139 8.2265,0.85286 0.2552,0.66523 1.387,0.85286 5.1444,0.85286 2.6494,0 4.9753,0.25585 5.1685,0.56857 0.1933,0.31271 2.3832,0.56857 4.8665,0.56857 2.6309,0 4.515,0.23726 4.515,0.56858 0,0.31587 1.5162,0.56857 3.4114,0.56857 2.6534,0 3.4115,0.18952 3.4115,0.85286 0,0.65472 0.7265,0.85286 3.1271,0.85286 1.72,0 3.1272,0.25585 3.1272,0.56857 0,0.31587 1.5162,0.56857 3.4114,0.56857 1.8952,0 3.4114,0.2527 3.4114,0.56857 0,0.31272 1.124,0.56858 2.4978,0.56858 1.6957,0 2.6028,0.27385 2.825,0.85286 0.2243,0.58447 1.1381,0.85286 2.9037,0.85286 1.417,0 2.5764,0.25585 2.5764,0.56857 0,0.31271 1.1514,0.56857 2.5586,0.56857 1.4072,0 2.5586,0.25586 2.5586,0.56857 0,0.31272 0.8681,0.56858 1.9292,0.56858 1.1903,0 2.0545,0.32663 2.2564,0.85286 0.2243,0.58447 1.138,0.85285 2.9037,0.85285 1.417,0 2.5764,0.25586 2.5764,0.56858 0,0.31271 0.8955,0.56857 1.99,0.56857 1.0945,0 1.99,0.25586 1.99,0.56857 0,0.31272 0.8955,0.56858 1.99,0.56858 1.3899,0 1.99,0.25721 1.99,0.85285 0,0.59565 0.6002,0.85286 1.99,0.85286 1.0945,0 1.99,0.25586 1.99,0.56858 0,0.31271 0.8955,0.56857 1.99,0.56857 1.0945,0 1.9901,0.25586 1.9901,0.56857 0,0.31272 0.4843,0.56857 1.0763,0.56857 0.5919,0 1.2235,0.38379 1.4036,0.85286 0.2054,0.53531 1.0748,0.85286 2.3351,0.85286 1.1043,0 2.0078,0.25586 2.0078,0.56858 0,0.31271 0.8955,0.56857 1.99,0.56857 1.0945,0 1.99,0.25586 1.99,0.56857 0,0.31272 0.5117,0.56857 1.1372,0.56857 0.6317,0 1.1371,0.37905 1.1371,0.85286 0,0.53067 0.537,0.85286 1.4215,0.85286 0.7817,0 1.4214,0.25586 1.4214,0.56857 0,0.31272 0.7858,0.56858 1.7463,0.56858 1.6624,0 3.3708,1.06846 3.3708,2.10816 0,0.26601 -0.5117,0.85249 -1.1371,1.30327 -0.6254,0.45079 -1.1371,1.14692 -1.1371,1.54695 0,0.40004 -0.3838,0.72734 -0.8529,0.72734 -0.4691,0 -0.8529,0.25586 -0.8529,0.56858 0,0.31271 -0.5117,0.56857 -1.1371,0.56857 -0.6254,0 -1.1372,0.25586 -1.1372,0.56857 0,0.31272 -0.3837,0.56858 -0.8528,0.56858 -0.4691,0 -0.8529,0.26748 -0.8529,0.59441 0,0.77181 -2.6138,3.38559 -3.3856,3.38559 -0.3269,0 -0.5944,0.38379 -0.5944,0.85286 0,0.46908 -0.4477,0.85318 -0.995,0.85356 -1.0272,7.4e-4 -4.1221,2.35067 -4.1221,3.12992 0,0.6337 -1.8522,1.9472 -2.7758,1.96845 -0.4321,0.01 -1.6303,0.91359 -2.6625,2.00809 -1.0323,1.09451 -2.2138,1.99815 -2.6257,2.0081 -0.8697,0.021 -2.7389,1.3403 -2.7389,1.93307 0,0.74753 -1.6159,2.02886 -2.5586,2.02886 -1.0549,0 -2.5586,1.31273 -2.5586,2.23367 0,0.33506 -0.5831,0.60919 -1.2959,0.60919 -0.7127,0 -1.6647,0.51171 -2.1155,1.13714 -0.4508,0.62543 -1.239,1.13715 -1.7516,1.13715 -0.5126,0 -1.4123,0.63964 -1.9994,1.42143 -0.5871,0.78179 -1.6032,1.42143 -2.2579,1.42143 -0.6879,0 -1.5116,0.60009 -1.9511,1.42144 -0.4775,0.8921 -1.2543,1.42143 -2.0861,1.42143 -0.729,0 -1.3254,0.25585 -1.3254,0.56857 0,0.31271 -0.6396,0.56857 -1.4214,0.56857 -0.7818,0 -1.4214,0.27413 -1.4214,0.60919 0,1.00337 -1.5435,2.23368 -2.8023,2.23368 -0.6478,0 -1.1777,0.25585 -1.1777,0.56857 0,0.31271 -0.4759,0.56857 -1.0575,0.56857 -0.5817,0 -1.5379,0.63965 -2.125,1.42143 -0.5879,0.78288 -1.6454,1.42144 -2.3539,1.42144 -0.7076,0 -1.2865,0.25585 -1.2865,0.56857 0,0.31271 -0.5117,0.56857 -1.1372,0.56857 -0.6317,0 -1.1371,0.37905 -1.1371,0.85286 0,0.53067 -0.537,0.85286 -1.4214,0.85286 -0.7818,0 -1.4215,0.25586 -1.4215,0.56857 0,0.31272 -0.6396,0.56857 -1.4214,0.56857 -0.7818,0 -1.4214,0.25586 -1.4214,0.56858 0,0.31271 -0.5117,0.56857 -1.1372,0.56857 -0.6317,0 -1.1371,0.37905 -1.1371,0.85286 0,0.46907 -0.3838,0.85286 -0.8529,0.85286 -0.4691,0 -0.8528,0.25586 -0.8528,0.56857 0,0.31272 -0.5118,0.56857 -1.1372,0.56857 -0.6254,0 -1.1371,0.25586 -1.1371,0.56858 0,0.31271 -0.6397,0.56857 -1.4215,0.56857 -0.8844,0 -1.4214,0.32219 -1.4214,0.85286 0,0.59565 -0.6002,0.85286 -1.99,0.85286 -1.0945,0 -1.99,0.25585 -1.99,0.56857 0,0.31271 -0.6396,0.56857 -1.4214,0.56857 -0.7818,0 -1.4215,0.25586 -1.4215,0.56858 0,0.31271 -0.5117,0.56857 -1.1371,0.56857 -0.6318,0 -1.1372,0.37905 -1.1372,0.85286 0,0.53066 -0.5369,0.85286 -1.4214,0.85286 -0.7818,0 -1.4214,0.25585 -1.4214,0.56857 0,0.31271 -0.6397,0.56857 -1.4215,0.56857 -0.7817,0 -1.4214,0.25586 -1.4214,0.56857 0,0.31272 -0.7756,0.56858 -1.7235,0.56858 -1.0076,0 -1.8596,0.3543 -2.0509,0.85286 -0.18,0.46907 -0.9395,0.85286 -1.6879,0.85286 -0.7483,0 -1.3606,0.25585 -1.3606,0.56857 0,0.31271 -0.8955,0.56857 -1.99,0.56857 -1.0945,0 -1.99,0.25586 -1.99,0.56857 0,0.31272 -0.5117,0.56858 -1.1371,0.56858 -0.6318,0 -1.1372,0.37905 -1.1372,0.85286 0,0.53066 -0.5369,0.85285 -1.4214,0.85285 -1.1371,0 -1.4214,-0.28428 -1.4214,-1.42143 z"
       id="path2338" />
    <path
       style="fill:#5c29ff;fill-opacity:1;stroke:none;stroke-width:1.22919;stroke-miterlimit:3.2"
       d="m 461.96774,247.07903 c 0,-0.70866 -1.1055,-0.85286 -6.5386,-0.85286 -3.98,0 -6.5386,-0.22249 -6.5386,-0.56858 0,-0.31587 -1.5162,-0.56857 -3.4114,-0.56857 -1.8952,0 -3.4114,-0.25269 -3.4114,-0.56857 0,-0.31272 -0.8955,-0.56857 -1.99,-0.56857 -1.3899,0 -1.99,-0.25721 -1.99,-0.85286 0,-0.63175 -0.6634,-0.85286 -2.5586,-0.85286 -1.4072,0 -2.5586,-0.25586 -2.5586,-0.56857 0,-0.31272 -1.2793,-0.56858 -2.8429,-0.56858 -1.5635,0 -2.8428,-0.25586 -2.8428,-0.56857 0,-0.31272 -0.8955,-0.56857 -1.99,-0.56857 -1.3899,0 -1.99,-0.25721 -1.99,-0.85286 0,-0.47381 -0.5054,-0.85286 -1.1372,-0.85286 -0.6254,0 -1.1371,-0.25586 -1.1371,-0.56857 0,-0.31272 -0.8955,-0.56858 -1.99,-0.56858 -1.0945,0 -1.99,-0.25585 -1.99,-0.56857 0,-0.31271 -0.6397,-0.56857 -1.4215,-0.56857 -0.8844,0 -1.4214,-0.32219 -1.4214,-0.85286 0,-0.53067 -0.537,-0.85286 -1.4214,-0.85286 -0.7818,0 -1.4215,-0.25586 -1.4215,-0.56857 0,-0.31272 -0.5117,-0.56858 -1.1371,-0.56858 -0.6254,0 -1.1371,-0.25585 -1.1371,-0.56857 0,-0.31271 -0.6397,-0.56857 -1.4215,-0.56857 -0.7818,0 -1.4214,-0.29162 -1.4214,-0.64804 0,-0.82998 -1.7326,-2.15325 -2.8501,-2.17674 -0.473,-0.01 -1.3404,-0.65773 -1.9275,-1.43952 -0.5871,-0.78178 -1.5433,-1.42143 -2.1249,-1.42143 -0.5817,0 -1.0575,-0.25586 -1.0575,-0.56857 0,-0.31272 -0.2742,-0.56857 -0.6092,-0.56857 -0.6627,0 -2.2337,-1.39966 -2.2337,-1.99001 0,-0.47441 -1.5156,-1.99 -1.99,-1.99 -0.5904,0 -1.99,-1.57104 -1.99,-2.23368 0,-0.33505 -0.2559,-0.60919 -0.5686,-0.60919 -0.3316,0 -0.5685,-1.89524 -0.5685,-4.54858 0,-2.65334 0.2369,-4.54858 0.5685,-4.54858 0.3127,0 0.5686,-0.63964 0.5686,-1.42143 0,-0.78179 0.2559,-1.42143 0.5686,-1.42143 0.3127,0 0.5685,-0.63965 0.5685,-1.42144 0,-1.10043 0.2927,-1.42143 1.296,-1.42143 0.7127,0 1.6647,-0.51171 2.1155,-1.13714 0.4508,-0.62543 1.4027,-1.13715 2.1155,-1.13715 0.7128,0 1.2959,-0.29161 1.2959,-0.64803 0,-0.87378 1.7562,-2.15442 2.985,-2.17675 0.5473,-0.01 0.995,-0.27394 0.995,-0.58665 0,-0.31272 0.5198,-0.56858 1.155,-0.56858 0.6353,0 1.3023,-0.38378 1.4823,-0.85286 0.18,-0.46907 0.9395,-0.85286 1.6879,-0.85286 0.7483,0 1.3606,-0.25585 1.3606,-0.56857 0,-0.31271 0.5117,-0.56857 1.1371,-0.56857 0.6254,0 1.1371,-0.22812 1.1371,-0.50694 0,-0.27881 0.6397,-0.66747 1.4215,-0.86369 0.7818,-0.19621 1.4214,-0.60774 1.4214,-0.91449 0,-0.30676 0.8955,-0.55774 1.99,-0.55774 1.0945,0 1.99,-0.25586 1.99,-0.56858 0,-0.31271 0.8955,-0.56857 1.99,-0.56857 1.3899,0 1.99,-0.25721 1.99,-0.85286 0,-0.59565 0.6002,-0.85286 1.99,-0.85286 1.0945,0 1.99,-0.25586 1.99,-0.56857 0,-0.31272 0.8955,-0.56857 1.99,-0.56857 1.0945,0 1.99,-0.25586 1.99,-0.56858 0,-0.31271 1.1514,-0.56857 2.5586,-0.56857 1.8953,0 2.5586,-0.22111 2.5586,-0.85286 0,-0.64438 0.6949,-0.85286 2.8429,-0.85286 1.5635,0 2.8428,-0.25585 2.8428,-0.56857 0,-0.33915 2.1796,-0.56857 5.4015,-0.56857 3.2219,0 5.4014,-0.22943 5.4014,-0.56858 0,-0.33693 2.0848,-0.56857 5.1172,-0.56857 4.1695,0 5.1171,-0.15793 5.1171,-0.85286 0,-0.74573 3.2851,-0.85286 26.1544,-0.85286 22.8692,0 26.1543,0.10713 26.1543,0.85286 0,0.70866 1.1056,0.85286 6.5386,0.85286 3.98,0 6.5386,0.22249 6.5386,0.56857 0,0.31588 1.5162,0.56858 3.4114,0.56858 1.8953,0 3.4115,0.2527 3.4115,0.56857 0,0.3249 1.7057,0.56857 3.98,0.56857 3.1587,0 3.98,0.17599 3.98,0.85286 0,0.66334 0.7581,0.85286 3.4114,0.85286 1.8952,0 3.4114,0.2527 3.4114,0.56857 0,0.31272 1.1514,0.56858 2.5586,0.56858 1.4072,0 2.5586,0.25585 2.5586,0.56857 0,0.31271 1.2793,0.56857 2.8429,0.56857 2.1479,0 2.8428,0.20848 2.8428,0.85286 0,0.59565 0.6002,0.85286 1.99,0.85286 1.0945,0 1.99,0.25586 1.99,0.56857 0,0.31272 0.8682,0.56858 1.9292,0.56858 1.1903,0 2.0545,0.32663 2.2565,0.85285 0.1913,0.49857 1.0432,0.85286 2.0508,0.85286 0.9479,0 1.7236,0.25586 1.7236,0.56858 0,0.31271 0.8955,0.56857 1.99,0.56857 1.0945,0 1.99,0.25586 1.99,0.56857 0,0.31272 0.6396,0.56857 1.4214,0.56857 0.8844,0 1.4214,0.3222 1.4214,0.85286 0,0.59565 0.6002,0.85286 1.99,0.85286 1.0945,0 1.99,0.25586 1.99,0.56858 0,0.31271 0.5117,0.56857 1.1372,0.56857 0.6254,0 1.1371,0.25586 1.1371,0.56857 0,0.31272 0.5964,0.56857 1.3254,0.56857 0.8318,0 1.6086,0.52933 2.0861,1.42144 0.4774,0.8921 1.2542,1.42143 2.086,1.42143 0.729,0 1.3254,0.25586 1.3254,0.56857 0,0.31272 0.6396,0.56857 1.4214,0.56857 0.8845,0 1.4215,0.32219 1.4215,0.85286 0,0.47381 0.5054,0.85286 1.1371,0.85286 0.6254,0 1.1372,0.25586 1.1372,0.56857 0,0.31272 0.6396,0.56858 1.4214,0.56858 0.7818,0 1.4214,0.25585 1.4214,0.56857 0,0.31271 0.6397,0.56857 1.4214,0.56857 0.8845,0 1.4215,0.32219 1.4215,0.85286 0,0.46907 0.4477,0.85317 0.995,0.85355 1.0272,7.4e-4 4.1221,2.35068 4.1221,3.12993 0,0.63434 1.8526,1.94721 2.7777,1.96845 0.4332,0.01 1.3805,0.65773 2.105,1.43952 0.7245,0.78178 1.7133,1.42143 2.1973,1.42143 0.501,0 0.8801,0.4898 0.8801,1.13714 0,0.62543 0.2674,1.13715 0.5944,1.13715 0.3269,0 -0.045,0.63964 -0.827,1.42143 -0.8939,0.89388 -2.0641,1.42143 -3.153,1.42143 -1.1602,0 -1.7316,0.28146 -1.7316,0.85286 0,0.46907 -0.3838,0.85286 -0.8529,0.85286 -0.469,0 -0.8528,0.25586 -0.8528,0.56857 0,0.31272 -0.5117,0.56858 -1.1372,0.56858 -0.6254,0 -1.1371,0.25585 -1.1371,0.56857 0,0.31271 -0.6397,0.56857 -1.4214,0.56857 -0.7818,0 -1.4215,0.27414 -1.4215,0.60919 0,1.00337 -1.5434,2.23368 -2.8022,2.23368 -0.6478,0 -1.1778,0.25585 -1.1778,0.56857 0,0.31271 -0.5197,0.56857 -1.155,0.56857 -0.6352,0 -1.3022,0.38379 -1.4822,0.85286 -0.18,0.46907 -0.8117,0.85286 -1.4036,0.85286 -0.592,0 -1.0763,0.25586 -1.0763,0.56857 0,0.31272 -0.6397,0.56857 -1.4215,0.56857 -0.7818,0 -1.4214,0.25586 -1.4214,0.56858 0,0.31271 -0.4759,0.56857 -1.0575,0.56857 -0.5816,0 -1.5379,0.63964 -2.125,1.42143 -0.7567,1.00764 -1.6074,1.42143 -2.9225,1.42143 -1.0202,0 -1.855,0.25586 -1.855,0.56858 0,0.31271 -0.8955,0.56857 -1.99,0.56857 -1.3899,0 -1.99,0.25721 -1.99,0.85286 0,0.53066 -0.537,0.85286 -1.4215,0.85286 -0.7818,0 -1.4214,0.25585 -1.4214,0.56857 0,0.31271 -1.3886,0.56857 -3.0859,0.56857 -2.6144,0 -3.2567,0.21718 -4.204,1.42143 -0.8683,1.10388 -1.6396,1.42144 -3.4527,1.42144 -1.284,0 -2.3346,0.25585 -2.3346,0.56857 0,0.34724 -2.6375,0.56857 -6.7755,0.56857 -4.8644,0 -6.869,0.20046 -7.1071,0.71072 -0.2654,0.56857 -0.398,0.56857 -0.6634,0 -0.4009,-0.85917 -8.0039,-0.99968 -8.2916,-0.15324 -0.1155,0.3395 -5.0373,0.57554 -12.5873,0.60366 -10.229,0.0381 -12.4527,0.18923 -12.7116,0.86395 -0.4837,1.26056 -53.638,1.22579 -53.638,-0.0351 z"
       id="path2636" />
    <path
       style="fill:#5b29ff;fill-opacity:1;stroke:none;stroke-width:1.22919;stroke-miterlimit:3.2"
       d="m 356.78184,209.83751 c 0,-0.31271 -1.124,-0.56857 -2.4978,-0.56857 -1.6957,0 -2.6028,-0.27385 -2.825,-0.85286 -0.1913,-0.49856 -1.0433,-0.85286 -2.0508,-0.85286 -0.948,0 -1.7236,-0.25586 -1.7236,-0.56857 0,-0.31272 -0.8955,-0.56857 -1.99,-0.56857 -1.0945,0 -1.99,-0.25586 -1.99,-0.56858 0,-0.31271 -1.2793,-0.56857 -2.8429,-0.56857 -2.1479,0 -2.8428,-0.20848 -2.8428,-0.85286 0,-0.59565 -0.6002,-0.85286 -1.99,-0.85286 -1.0945,0 -1.99,-0.25585 -1.99,-0.56857 0,-0.31271 -0.5118,-0.56857 -1.1372,-0.56857 -0.6254,0 -1.1371,-0.25586 -1.1371,-0.56858 0,-0.31271 -0.6397,-0.56857 -1.4215,-0.56857 -0.8844,0 -1.4214,-0.32219 -1.4214,-0.85286 0,-0.53066 -0.537,-0.85286 -1.4214,-0.85286 -0.7818,0 -1.4215,-0.25585 -1.4215,-0.56857 0,-0.31271 -0.8955,-0.56857 -1.99,-0.56857 -1.0945,0 -1.99,-0.25586 -1.99,-0.56857 0,-0.31272 -0.6396,-0.56858 -1.4214,-0.56858 -0.8845,0 -1.4214,-0.32219 -1.4214,-0.85286 0,-0.4738 -0.5054,-0.85286 -1.1372,-0.85286 -0.6254,0 -1.1371,-0.25585 -1.1371,-0.56857 0,-0.31271 -0.6397,-0.56857 -1.42147,-0.56857 -0.78178,0 -1.42143,-0.25586 -1.42143,-0.56857 0,-0.31272 -0.63964,-0.56858 -1.42143,-0.56858 -0.88445,0 -1.42143,-0.32219 -1.42143,-0.85286 0,-0.59564 -0.60017,-0.85285 -1.99001,-0.85285 -1.0945,0 -1.99,-0.25586 -1.99,-0.56858 0,-0.31271 -0.51172,-0.56857 -1.13715,-0.56857 -0.62543,0 -1.13714,-0.25586 -1.13714,-0.56857 0,-0.31272 -0.63965,-0.56858 -1.42143,-0.56858 -0.88445,0 -1.42144,-0.32219 -1.42144,-0.85285 0,-0.53067 -0.53698,-0.85286 -1.42143,-0.85286 -0.78179,0 -1.42143,-0.25586 -1.42143,-0.56858 0,-0.31271 -0.51172,-0.56857 -1.13715,-0.56857 -0.62543,0 -1.13714,-0.25586 -1.13714,-0.56857 0,-0.31272 -0.63965,-0.56857 -1.42143,-0.56857 -0.78179,0 -1.42143,-0.29162 -1.42143,-0.64804 0,-0.87378 -1.75616,-2.15441 -2.98501,-2.17675 -0.54725,-0.01 -0.995,-0.2567 -0.995,-0.54833 0,-0.29165 -0.57568,-0.71203 -1.27929,-0.9342 -0.70361,-0.22216 -1.69309,-0.87905 -2.19884,-1.45975 -0.50575,-0.58069 -1.42199,-1.05581 -2.03607,-1.05581 -0.61409,0 -1.45885,-0.63964 -1.87725,-1.42143 -0.4184,-0.78179 -1.00754,-1.42143 -1.30921,-1.42143 -0.60983,0 -3.23759,-2.88326 -3.23868,-3.55358 -3.8e-4,-0.23454 -0.27482,-0.42643 -0.60988,-0.42643 -0.66263,0 -2.23367,-1.39966 -2.23367,-1.99 0,-0.47442 -1.5156,-1.99001 -1.99001,-1.99001 -0.47441,0 -1.99,-1.51559 -1.99,-1.99001 0,-0.47441 -1.5156,-1.99001 -1.99001,-1.99001 -0.47441,0 -1.99,-1.51559 -1.99,-1.99 0,-0.47441 -1.5156,-1.99001 -1.99001,-1.99001 -0.59035,0 -1.99,-1.57104 -1.99,-2.23367 0,-0.33506 -0.25586,-0.60919 -0.56857,-0.60919 -0.31272,0 -0.56858,-0.51172 -0.56858,-1.13715 0,-0.63174 -0.37905,-1.13714 -0.85286,-1.13714 -0.46907,0 -0.85286,-0.26749 -0.85286,-0.59442 0,-0.7718 -2.61378,-3.38559 -3.38559,-3.38559 -0.32693,0 -0.59441,-0.53454 -0.59441,-1.18786 0,-0.66039 -1.13614,-2.29205 -2.55858,-3.67451 -1.40722,-1.36766 -2.55858,-2.96468 -2.55858,-3.54893 0,-0.58426 -0.61148,-1.38954 -1.35885,-1.78952 -0.74736,-0.39997 -1.6861,-1.33871 -2.08608,-2.08608 -0.39998,-0.74736 -0.95813,-1.35885 -1.24034,-1.35885 -0.83928,0 -2.1376,-1.55401 -2.1376,-2.55857 0,-1.0549 -1.31274,-2.55858 -2.23368,-2.55858 -0.33505,0 -0.60919,-0.38379 -0.60919,-0.85286 0,-0.46907 -0.25585,-0.85286 -0.56857,-0.85286 -0.31271,0 -0.56857,-0.51171 -0.56857,-1.13714 0,-0.62543 -0.25586,-1.13715 -0.56857,-1.13715 -0.31272,0 -0.56858,-0.63964 -0.56858,-1.42143 0,-0.78179 -0.27413,-1.42143 -0.60918,-1.42143 -0.92094,0 -2.23368,-1.50368 -2.23368,-2.55858 0,-1.0549 -1.31274,-2.55858 -2.23368,-2.55858 -0.33505,0 -0.60918,-0.63964 -0.60918,-1.42143 0,-0.78179 -0.25586,-1.42143 -0.56858,-1.42143 -0.31271,0 -0.56857,-0.63965 -0.56857,-1.42143 0,-0.78179 -0.25586,-1.42144 -0.56857,-1.42144 -0.31272,0 -0.56857,-0.51171 -0.56857,-1.13714 0,-0.63175 -0.37905,-1.13715 -0.85286,-1.13715 -0.46908,0 -0.85286,-0.38378 -0.85286,-0.85286 0,-0.47381 -0.5054,-0.85285 -1.13715,-0.85285 -0.62543,0 -1.13714,-0.25586 -1.13714,-0.56858 0,-0.31271 -0.38379,-0.56857 -0.85286,-0.56857 -0.46908,0 -0.85286,-0.25586 -0.85286,-0.56857 0,-0.31272 -0.48434,-0.56858 -1.07632,-0.56858 -0.59197,0 -1.22358,-0.38378 -1.40358,-0.85285 -0.18,-0.46908 -0.84702,-0.85286 -1.48227,-0.85286 -0.63524,0 -1.15499,-0.25586 -1.15499,-0.56858 0,-0.31271 -0.59641,-0.56857 -1.32535,-0.56857 -0.8318,0 -1.60864,-0.52933 -2.08608,-1.42143 -0.47744,-0.8921 -1.25428,-1.42143 -2.08608,-1.42143 -0.72895,0 -1.32536,-0.25586 -1.32536,-0.56858 0,-0.31271 -0.45485,-0.56857 -1.01078,-0.56857 -0.88521,0 -2.96923,-1.800358 -2.96923,-2.565068 0,-0.15279 0.8955,-0.27779 1.99001,-0.27779 1.0945,0 1.99,-0.25586 1.99,-0.56857 0,-0.31272 0.8955,-0.56858 1.99001,-0.56858 1.0945,0 1.99,0.25586 1.99,0.56858 0,0.32489 1.70572,0.56857 3.98001,0.56857 2.27429,0 3.98001,-0.24368 3.98001,-0.56857 0,-0.36447 5.30668,-0.56858 14.78289,-0.56858 9.47621,0 14.78289,0.20411 14.78289,0.56858 0,0.31587 1.51619,0.56857 3.41144,0.56857 1.89524,0 3.41143,0.2527 3.41143,0.56857 0,0.31272 1.37985,0.56857 3.06632,0.56857 2.20112,0 3.15867,0.24065 3.3936,0.852858 0.23632,0.61587 1.20121,0.85286 3.47226,0.85286 1.72975,0 3.145,0.25586 3.145,0.56857 0,0.31272 0.8955,0.56858 1.99,0.56858 1.0945,0 1.99,0.25586 1.99,0.56857 0,0.31272 0.86814,0.56857 1.92918,0.56857 1.19032,0 2.05451,0.32664 2.25645,0.85286 0.19131,0.49856 1.04328,0.85286 2.05083,0.85286 0.94796,0 1.72356,0.25586 1.72356,0.56857 0,0.31272 0.63965,0.56858 1.42143,0.56858 0.78179,0 1.42144,0.25585 1.42144,0.56857 0,0.31271 0.8955,0.56857 1.99,0.56857 1.38984,0 1.99001,0.25721 1.99001,0.85286 0,0.59565 0.60016,0.85286 1.99,0.85286 1.0945,0 1.99,0.25586 1.99,0.56857 0,0.31272 0.63965,0.56858 1.42144,0.56858 0.78178,0 1.42143,0.25585 1.42143,0.56857 0,0.31271 0.48434,0.56857 1.07631,0.56857 0.59198,0 1.22359,0.38379 1.40359,0.85286 0.18934,0.49341 1.03955,0.85286 2.01728,0.85286 0.9295,0 1.84814,0.25586 2.0414,0.56857 0.19327,0.31272 0.84802,0.56857 1.45499,0.56857 0.60698,0 1.10359,0.25586 1.10359,0.56858 0,0.31271 0.63965,0.56857 1.42143,0.56857 0.88445,0 1.42144,0.32219 1.42144,0.85286 0,0.59565 0.60016,0.85286 1.99,0.85286 1.09454,0 1.99004,0.25586 1.99004,0.56857 0,0.31272 0.5964,0.56857 1.3253,0.56857 0.8318,0 1.6087,0.52933 2.0861,1.42144 0.5598,1.04595 1.2254,1.42143 2.5197,1.42143 1.2126,0 2.0906,0.44157 2.8264,1.42143 0.5871,0.78179 1.5434,1.42143 2.125,1.42143 0.5816,0 1.0575,0.25586 1.0575,0.56857 0,0.31272 0.5459,0.56858 1.2131,0.56858 1.1089,0 3.9017,2.5426 3.9034,3.55358 3e-4,0.23453 0.5295,0.42643 1.176,0.42643 0.6464,0 2.0199,0.8955 3.0521,1.99 1.0323,1.0945 2.2944,1.99 2.8047,1.99 0.5103,0 0.9279,0.25586 0.9279,0.56858 0,0.31271 0.3838,0.56857 0.8528,0.56857 0.4691,0 0.8529,0.38379 0.8529,0.85286 0,0.46907 0.4477,0.85317 0.995,0.85355 1.1627,8e-4 4.1221,2.39498 4.1221,3.33475 0,0.35451 0.3838,0.64457 0.8529,0.64457 0.4691,0 0.8529,0.25586 0.8529,0.56857 0,0.31272 0.5117,0.56857 1.1371,0.56857 0.6254,0 1.1372,0.25586 1.1372,0.56858 0,0.31271 0.3837,0.56857 0.8528,0.56857 0.4691,0 0.8529,0.38379 0.8529,0.85286 0,0.47381 0.5054,0.85286 1.1371,0.85286 0.6254,0 1.1372,0.25585 1.1372,0.56857 0,0.31271 0.3837,0.56857 0.8528,0.56857 0.4691,0 0.8529,0.25586 0.8529,0.56857 0,0.31272 0.5117,0.56858 1.1371,0.56858 0.6318,0 1.1372,0.37905 1.1372,0.85286 0,0.46907 0.2558,0.85286 0.5685,0.85286 1.0639,0 7.3915,6.81428 7.3915,7.96001 0,0.62543 0.2916,1.13715 0.648,1.13715 0.8738,0 2.1544,1.75616 2.1768,2.98501 0.01,0.54725 0.2739,0.995 0.5866,0.995 0.3127,0 0.5686,0.51974 0.5686,1.15499 0,0.63524 0.3838,1.30226 0.8529,1.48226 0.5262,0.20193 0.8528,1.06613 0.8528,2.25645 0,1.06105 0.2559,1.92918 0.5686,1.92918 0.3127,0 0.5686,1.15136 0.5686,2.55858 0,1.40722 0.2558,2.55858 0.5685,2.55858 0.3127,0 0.5686,1.15938 0.5686,2.57641 0,1.76566 0.2684,2.67942 0.8529,2.9037 0.6696,0.25696 0.8528,1.41359 0.8528,5.3836 0,2.99183 0.2322,5.05632 0.5686,5.05632 0.3127,0 0.5686,1.27929 0.5686,2.84287 0,1.56357 -0.2279,2.84286 -0.5064,2.84286 -0.2785,0 -0.5317,1.68812 -0.5627,3.75139 -0.049,3.2933 -0.2305,3.88848 -1.4836,4.87413 -0.785,0.61751 -1.4273,1.6159 -1.4273,2.21863 0,0.84425 -0.401,1.09588 -1.7464,1.09588 -1.7421,0 -3.3708,1.07927 -3.3708,2.23367 0,0.33506 -0.3838,0.60919 -0.8529,0.60919 -0.469,0 -0.8528,0.25586 -0.8528,0.56857 0,0.31272 -1.1514,0.56858 -2.5586,0.56858 -1.4072,0 -2.5586,-0.25586 -2.5586,-0.56858 0,-0.31271 -1.1513,-0.56857 -2.5585,-0.56857 -1.4073,0 -2.5586,0.25586 -2.5586,0.56857 0,0.31272 -0.3838,0.56858 -0.8529,0.56858 -0.4691,0 -0.8528,-0.25586 -0.8528,-0.56858 z"
       id="path2712" />
    <path
       style="fill:#3f3232;fill-opacity:1;stroke:none;stroke-width:1.22919;stroke-miterlimit:3.2"
       d="m 316.98174,412.53369 c 0,-0.48013 -0.5083,-0.85286 -1.163,-0.85286 -0.63967,0 -1.80266,-0.63964 -2.58445,-1.42143 -0.78178,-0.78179 -1.79359,-1.42143 -2.24844,-1.42143 -0.45486,0 -0.82702,-0.25586 -0.82702,-0.56858 0,-0.31271 -0.63964,-0.56857 -1.42143,-0.56857 -0.78179,0 -1.42143,-0.25586 -1.42143,-0.56857 0,-0.31272 -0.39601,-0.56857 -0.88001,-0.56857 -0.484,0 -1.47281,-0.63965 -2.19735,-1.42144 -0.72453,-0.78178 -1.73575,-1.42143 -2.24714,-1.42143 -0.51139,0 -0.9298,-0.25586 -0.9298,-0.56857 0,-0.31272 -0.63965,-0.56857 -1.42143,-0.56857 -0.88445,0 -1.42144,-0.3222 -1.42144,-0.85286 0,-0.53067 -0.53698,-0.85286 -1.42143,-0.85286 -0.78178,0 -1.42143,-0.25586 -1.42143,-0.56857 0,-0.31272 -0.51171,-0.56858 -1.13714,-0.56858 -0.62543,0 -1.13715,-0.25585 -1.13715,-0.56857 0,-0.31271 -0.63964,-0.56857 -1.42143,-0.56857 -0.88445,0 -1.42143,-0.3222 -1.42143,-0.85286 0,-0.59565 -0.60016,-0.85286 -1.99001,-0.85286 -1.97947,0 -1.99,-0.0135 -1.99,-2.55858 0,-1.40722 -0.25586,-2.55858 -0.56858,-2.55858 -0.77867,0 -0.77867,-35.62312 0,-36.10436 0.31699,-0.19591 0.56858,-2.83758 0.56858,-5.97002 0,-3.13243 0.25159,-5.77409 0.56857,-5.97 0.31271,-0.19327 0.56857,-2.61164 0.56857,-5.37417 0,-3.94018 0.18382,-5.09331 0.85286,-5.35004 0.49856,-0.19131 0.85286,-1.04328 0.85286,-2.05083 0,-0.94796 0.25586,-1.72356 0.56857,-1.72356 0.31272,0 0.56858,-0.63965 0.56858,-1.42144 0,-0.78178 0.25585,-1.42143 0.56857,-1.42143 0.31271,0 0.56857,-1.12399 0.56857,-2.49774 0,-1.69572 0.27386,-2.60284 0.85286,-2.82503 0.46907,-0.17999 0.85286,-0.84701 0.85286,-1.48226 0,-0.63524 0.25586,-1.15499 0.56857,-1.15499 0.31272,0 0.56858,-0.63964 0.56858,-1.42143 0,-0.78179 0.25585,-1.42143 0.56857,-1.42143 0.31271,0 0.56857,-0.8955 0.56857,-1.99 0,-1.38985 0.25721,-1.99001 0.85286,-1.99001 0.46907,0 0.85286,-0.49661 0.85286,-1.10359 0,-0.60697 0.25586,-1.26172 0.56857,-1.45499 0.31272,-0.19327 0.56857,-0.75383 0.56857,-1.24571 0,-0.49187 0.89551,-1.73887 1.99001,-2.77112 1.43381,-1.35226 1.99,-2.36423 1.99,-3.62072 0,-0.95914 0.25586,-1.7439 0.56858,-1.7439 0.31271,0 0.56857,-0.63964 0.56857,-1.42143 0,-0.88445 0.32219,-1.42143 0.85286,-1.42143 0.47381,0 0.85286,-0.5054 0.85286,-1.13715 0,-0.62543 0.25585,-1.13714 0.56857,-1.13714 0.31271,0 0.56857,-0.63965 0.56857,-1.42143 0,-0.78179 0.25586,-1.42143 0.56858,-1.42143 0.31271,0 0.56857,-0.63965 0.56857,-1.42144 0,-0.88445 0.32219,-1.42143 0.85286,-1.42143 0.47381,0 0.85286,-0.5054 0.85286,-1.13714 0,-0.62543 0.25585,-1.13715 0.56857,-1.13715 0.31271,0 0.56857,-0.63964 0.56857,-1.42143 0,-0.78179 0.25586,-1.42143 0.56857,-1.42143 0.31272,0 0.56858,-0.8955 0.56858,-1.99001 0,-1.38984 0.25721,-1.99 0.85286,-1.99 0.50864,0 0.85286,-0.52304 0.85286,-1.29592 0,-0.71275 0.51171,-1.66473 1.13714,-2.11552 0.62543,-0.45079 1.13715,-1.40277 1.13715,-2.11552 0,-0.77287 0.34422,-1.29591 0.85285,-1.29591 0.4691,0 0.8532,-0.44776 0.8536,-0.99501 8e-4,-1.16267 2.3949,-4.12215 3.3347,-4.12215 0.3545,0 0.6446,-0.63964 0.6446,-1.42143 0,-0.78179 0.2558,-1.42143 0.5686,-1.42143 0.3127,0 0.5685,-0.59641 0.5685,-1.32536 0,-0.8318 0.5294,-1.60864 1.4215,-2.08608 0.8921,-0.47744 1.4214,-1.25428 1.4214,-2.08608 0,-0.72895 0.2558,-1.32536 0.5686,-1.32536 0.3127,0 0.5685,-0.39166 0.5685,-0.87037 0,-0.4787 1.2793,-2.10992 2.8429,-3.62491 1.5636,-1.51499 2.8429,-3.1137 2.8429,-3.55269 0,-0.43899 0.5117,-1.16699 1.1371,-1.61777 0.6254,-0.45079 1.1372,-1.40277 1.1372,-2.11552 0,-0.71276 0.2741,-1.29592 0.6091,-1.29592 0.6627,0 2.2337,-1.39965 2.2337,-1.99 0,-0.47441 1.5156,-1.99001 1.99,-1.99001 0.4744,0 1.99,-1.51559 1.99,-1.99 0,-0.49448 1.5247,-1.99001 2.0289,-1.99001 0.6696,0 1.9137,-1.92116 1.9331,-2.985 0.012,-0.67747 0.4717,-0.99501 1.4395,-0.99501 0.7818,0 1.4217,-0.19189 1.4221,-0.42643 10e-4,-0.72669 2.654,-3.55357 3.3347,-3.55357 0.3546,0 0.6446,-0.26749 0.6446,-0.59442 0,-0.7718 2.6138,-3.38559 3.3856,-3.38559 0.3269,0 0.5944,-0.26749 0.5944,-0.59442 0,-0.7718 2.6138,-3.38559 3.3856,-3.38559 0.3269,0 0.5944,-0.38379 0.5944,-0.85286 0,-0.46907 0.4478,-0.85317 0.995,-0.85356 1.4269,-0.001 4.1222,-2.49037 4.1222,-3.80724 0,-0.61438 0.6396,-1.45939 1.4214,-1.87779 0.7818,-0.4184 1.4214,-1.10128 1.4214,-1.51751 0,-0.41623 0.5234,-0.75678 1.163,-0.75678 1.2101,0 3.9542,-2.34951 3.9542,-3.38559 0,-0.32693 0.8955,-0.59442 1.99,-0.59442 1.3654,0 1.99,-0.26049 1.99,-0.82989 0,-0.45644 1.0133,-1.86365 2.2518,-3.12715 2.2412,-2.28647 5.1323,-3.12049 5.9925,-1.72869 0.1933,0.31272 0.7398,0.56858 1.2144,0.56858 1.136,0 4.1871,3.07549 4.1871,4.22056 0,0.49312 -0.2559,0.89659 -0.5686,0.89659 -0.3345,0 -0.5686,1.99001 -0.5686,4.83287 0,2.79979 -0.236,4.83287 -0.5611,4.83287 -0.7418,0 -6.2618,5.50678 -6.2618,6.24684 0,0.31682 -0.3273,0.57603 -0.7273,0.57603 -0.4,0 -1.0962,0.51172 -1.547,1.13715 -0.4507,0.62543 -1.239,1.13714 -1.7516,1.13714 -0.5125,0 -1.4123,0.63965 -1.9994,1.42143 -0.5871,0.78179 -1.5367,1.42144 -2.1102,1.42144 -1.1456,0 -2.6673,1.27433 -2.6673,2.23367 0,0.33506 -0.2559,0.60919 -0.5686,0.60919 -0.3127,0 -0.5686,0.38185 -0.5686,0.84856 0,0.46672 -2.4306,3.26347 -5.4014,6.215 -2.9708,2.95154 -5.4015,5.76791 -5.4015,6.2586 0,0.49069 -0.2558,0.89216 -0.5685,0.89216 -0.3128,0 -0.5686,0.38378 -0.5686,0.85286 0,0.46907 -0.2675,0.85286 -0.5944,0.85286 -0.7718,0 -3.3856,2.61378 -3.3856,3.38559 0,0.32693 -0.3838,0.59441 -0.8529,0.59441 -0.4691,0 -0.8532,0.44776 -0.8535,0.99501 -6e-4,1.16267 -2.395,4.12216 -3.3348,4.12216 -0.3545,0 -0.6446,0.38379 -0.6446,0.85286 0,0.46907 -0.2558,0.85286 -0.5685,0.85286 -0.3127,0 -0.5686,0.48434 -0.5686,1.07631 0,0.59198 -0.3838,1.22359 -0.8529,1.40359 -0.469,0.18 -0.8528,0.79053 -0.8528,1.35675 0,0.5662 -0.5117,1.39829 -1.1372,1.84907 -0.6254,0.45079 -1.1371,1.40278 -1.1371,2.11553 0,0.71275 -0.2741,1.29591 -0.6092,1.29591 -1.0034,0 -2.2337,1.54347 -2.2337,2.80225 0,0.64777 -0.2558,1.17776 -0.5685,1.17776 -0.3128,0 -0.5686,0.63964 -0.5686,1.42143 0,0.88445 -0.3222,1.42143 -0.8529,1.42143 -0.4738,0 -0.8528,0.5054 -0.8528,1.13715 0,0.62543 -0.2559,1.13714 -0.5686,1.13714 -0.3127,0 -0.5686,0.38379 -0.5686,0.85286 0,0.46908 -0.2558,0.85286 -0.5686,0.85286 -0.3127,0 -0.5685,0.39601 -0.5685,0.88001 0,0.484 -0.6397,1.47281 -1.4215,2.19735 -0.7818,0.72453 -1.4214,1.73575 -1.4214,2.24714 0,0.51139 -0.2559,0.9298 -0.5686,0.9298 -0.3127,0 -0.5685,0.63965 -0.5685,1.42143 0,0.88445 -0.3222,1.42144 -0.8529,1.42144 -0.5307,0 -0.8529,0.53698 -0.8529,1.42143 0,0.78179 -0.2558,1.42143 -0.5685,1.42143 -0.3127,0 -0.5686,0.8955 -0.5686,1.99 0,1.09451 -0.2559,1.99001 -0.5686,1.99001 -0.3127,0 -0.5685,0.51974 -0.5685,1.15499 0,0.63525 -0.3838,1.30226 -0.8529,1.48226 -0.4691,0.18 -0.8529,0.81161 -0.8529,1.40359 0,0.59197 -0.2558,1.07631 -0.5685,1.07631 -0.3128,0 -0.5686,0.63965 -0.5686,1.42144 0,0.78178 -0.2559,1.42143 -0.5686,1.42143 -0.3127,0 -0.5686,0.63964 -0.5686,1.42143 0,0.88445 -0.3221,1.42143 -0.8528,1.42143 -0.4738,0 -0.8529,0.5054 -0.8529,1.13715 0,0.62543 -0.2558,1.13714 -0.5685,1.13714 -0.3128,0 -0.5686,0.8955 -0.5686,1.99001 0,1.0945 -0.2559,1.99 -0.5686,1.99 -0.3127,0 -0.5686,0.63964 -0.5686,1.42143 0,0.78179 -0.2741,1.42143 -0.6092,1.42143 -0.7871,0 -2.2336,1.4465 -2.2336,2.23368 0,0.33506 -0.2559,0.60919 -0.5686,0.60919 -0.3127,0 -0.5686,0.8955 -0.5686,1.99 0,1.38984 -0.25719,1.99001 -0.85284,1.99001 -0.59565,0 -0.85286,0.60016 -0.85286,1.99 0,1.0945 -0.25586,1.99001 -0.56857,1.99001 -0.31272,0 -0.56857,0.40206 -0.56857,0.89347 0,0.4914 -0.38379,1.27726 -0.85286,1.74633 -0.46908,0.46907 -0.85286,1.45913 -0.85286,2.20012 0,0.741 -0.25586,1.50539 -0.56858,1.69866 -0.31271,0.19327 -0.56857,0.84802 -0.56857,1.45499 0,0.60698 -0.25586,1.10359 -0.56857,1.10359 -0.3387,0 -0.56857,2.15925 -0.56857,5.34061 0,4.2227 -0.17853,5.40911 -0.85286,5.66787 -0.65364,0.25082 -0.85286,1.32757 -0.85286,4.60942 0,2.47571 -0.23986,4.28214 -0.56857,4.28214 -0.36663,0 -0.56858,6.15953 -0.56858,17.34146 0,11.18194 0.20195,17.34147 0.56858,17.34147 0.31271,0 0.56857,0.51974 0.56857,1.15499 0,0.63525 0.38378,1.30226 0.85286,1.48226 0.46907,0.18001 0.85286,0.93955 0.85286,1.68788 0,0.74833 0.25585,1.3606 0.56857,1.3606 0.31271,0 0.56857,1.10812 0.56857,2.4625 0,2.04476 0.24114,2.59155 1.42143,3.22323 0.78179,0.4184 1.42144,0.99162 1.42144,1.27383 0,0.70911 1.49269,2.1376 2.23367,2.1376 0.33506,0 0.60917,0.58316 0.60917,1.29592 0,0.71275 0.5117,1.66473 1.1372,2.11552 0.6254,0.45079 1.1371,1.40277 1.1371,2.11552 0,0.77287 0.3442,1.29591 0.8529,1.29591 0.5306,0 0.8528,0.53699 0.8528,1.42144 0,1.13714 -0.2843,1.42143 -1.4214,1.42143 -0.8844,0 -1.4214,-0.32219 -1.4214,-0.85286 z"
       id="path2862" />
  </g>
</svg>
